<mxfile host="app.diagrams.net" modified="2023-11-09T22:41:09.812Z" agent="Mozilla/5.0 (Windows NT 10.0; Win64; x64) AppleWebKit/537.36 (KHTML, like Gecko) Chrome/119.0.0.0 Safari/537.36" etag="bVRcUceS0bLb9qNrCjfw" version="22.1.0" type="device">
  <diagram name="Trang-1" id="1F_bl-Zut_PkshlgHh62">
    <mxGraphModel dx="1050" dy="581" grid="1" gridSize="10" guides="1" tooltips="1" connect="1" arrows="1" fold="1" page="1" pageScale="1" pageWidth="827" pageHeight="1169" math="0" shadow="0">
      <root>
        <mxCell id="0" />
        <mxCell id="1" parent="0" />
        <mxCell id="meZ3qfEi7nn4eGLx0AMI-1" value="start" style="ellipse;whiteSpace=wrap;html=1;" vertex="1" parent="1">
          <mxGeometry x="90" y="30" width="120" height="80" as="geometry" />
        </mxCell>
        <mxCell id="meZ3qfEi7nn4eGLx0AMI-2" value="Nhap day, moth, year" style="shape=parallelogram;perimeter=parallelogramPerimeter;whiteSpace=wrap;html=1;fixedSize=1;" vertex="1" parent="1">
          <mxGeometry x="80" y="150" width="150" height="60" as="geometry" />
        </mxCell>
        <mxCell id="meZ3qfEi7nn4eGLx0AMI-3" value="month1,3,5,7,8.10.12" style="rhombus;whiteSpace=wrap;html=1;" vertex="1" parent="1">
          <mxGeometry x="60" y="240" width="140" height="110" as="geometry" />
        </mxCell>
        <mxCell id="meZ3qfEi7nn4eGLx0AMI-7" style="edgeStyle=orthogonalEdgeStyle;rounded=0;orthogonalLoop=1;jettySize=auto;html=1;exitX=1;exitY=0.5;exitDx=0;exitDy=0;" edge="1" parent="1" source="meZ3qfEi7nn4eGLx0AMI-4">
          <mxGeometry relative="1" as="geometry">
            <mxPoint x="310" y="295" as="targetPoint" />
          </mxGeometry>
        </mxCell>
        <mxCell id="meZ3qfEi7nn4eGLx0AMI-4" value="month=4,6,9,11" style="rhombus;whiteSpace=wrap;html=1;" vertex="1" parent="1">
          <mxGeometry x="220" y="255" width="100" height="80" as="geometry" />
        </mxCell>
        <mxCell id="meZ3qfEi7nn4eGLx0AMI-5" value="Nam nhuan" style="rhombus;whiteSpace=wrap;html=1;" vertex="1" parent="1">
          <mxGeometry x="374" y="255" width="80" height="80" as="geometry" />
        </mxCell>
        <mxCell id="meZ3qfEi7nn4eGLx0AMI-6" value="maxDay=28" style="rounded=0;whiteSpace=wrap;html=1;" vertex="1" parent="1">
          <mxGeometry x="490" y="265" width="120" height="60" as="geometry" />
        </mxCell>
        <mxCell id="meZ3qfEi7nn4eGLx0AMI-8" value="maxDay =31" style="rounded=0;whiteSpace=wrap;html=1;" vertex="1" parent="1">
          <mxGeometry x="80" y="430" width="120" height="60" as="geometry" />
        </mxCell>
        <mxCell id="meZ3qfEi7nn4eGLx0AMI-9" value="maxday=30" style="rounded=0;whiteSpace=wrap;html=1;" vertex="1" parent="1">
          <mxGeometry x="230" y="430" width="120" height="60" as="geometry" />
        </mxCell>
        <mxCell id="meZ3qfEi7nn4eGLx0AMI-10" value="maxday = 29" style="rounded=0;whiteSpace=wrap;html=1;" vertex="1" parent="1">
          <mxGeometry x="380" y="430" width="120" height="60" as="geometry" />
        </mxCell>
        <mxCell id="meZ3qfEi7nn4eGLx0AMI-11" value="" style="endArrow=classic;html=1;rounded=0;entryX=0.43;entryY=-0.003;entryDx=0;entryDy=0;entryPerimeter=0;" edge="1" parent="1" target="meZ3qfEi7nn4eGLx0AMI-8">
          <mxGeometry width="50" height="50" relative="1" as="geometry">
            <mxPoint x="129.5" y="350" as="sourcePoint" />
            <mxPoint x="130" y="420" as="targetPoint" />
          </mxGeometry>
        </mxCell>
        <mxCell id="meZ3qfEi7nn4eGLx0AMI-12" value="" style="endArrow=classic;html=1;rounded=0;entryX=0.333;entryY=-0.017;entryDx=0;entryDy=0;entryPerimeter=0;" edge="1" parent="1" target="meZ3qfEi7nn4eGLx0AMI-9">
          <mxGeometry width="50" height="50" relative="1" as="geometry">
            <mxPoint x="269.5" y="330" as="sourcePoint" />
            <mxPoint x="269.5" y="390" as="targetPoint" />
          </mxGeometry>
        </mxCell>
        <mxCell id="meZ3qfEi7nn4eGLx0AMI-13" value="" style="endArrow=classic;html=1;rounded=0;" edge="1" parent="1">
          <mxGeometry width="50" height="50" relative="1" as="geometry">
            <mxPoint x="414" y="335" as="sourcePoint" />
            <mxPoint x="420" y="430" as="targetPoint" />
          </mxGeometry>
        </mxCell>
        <mxCell id="meZ3qfEi7nn4eGLx0AMI-14" value="true" style="text;html=1;strokeColor=none;fillColor=none;align=center;verticalAlign=middle;whiteSpace=wrap;rounded=0;" vertex="1" parent="1">
          <mxGeometry x="430" y="380" width="60" height="30" as="geometry" />
        </mxCell>
        <mxCell id="meZ3qfEi7nn4eGLx0AMI-15" value="true" style="text;html=1;strokeColor=none;fillColor=none;align=center;verticalAlign=middle;whiteSpace=wrap;rounded=0;" vertex="1" parent="1">
          <mxGeometry x="280" y="370" width="60" height="30" as="geometry" />
        </mxCell>
        <mxCell id="meZ3qfEi7nn4eGLx0AMI-16" value="true" style="text;html=1;strokeColor=none;fillColor=none;align=center;verticalAlign=middle;whiteSpace=wrap;rounded=0;" vertex="1" parent="1">
          <mxGeometry x="130" y="370" width="60" height="30" as="geometry" />
        </mxCell>
        <mxCell id="meZ3qfEi7nn4eGLx0AMI-18" value="" style="endArrow=classic;html=1;rounded=0;exitX=0.344;exitY=1.09;exitDx=0;exitDy=0;exitPerimeter=0;" edge="1" parent="1" source="meZ3qfEi7nn4eGLx0AMI-2" target="meZ3qfEi7nn4eGLx0AMI-3">
          <mxGeometry width="50" height="50" relative="1" as="geometry">
            <mxPoint x="125" y="205" as="sourcePoint" />
            <mxPoint x="135" y="265" as="targetPoint" />
          </mxGeometry>
        </mxCell>
        <mxCell id="meZ3qfEi7nn4eGLx0AMI-19" value="" style="endArrow=classic;html=1;rounded=0;" edge="1" parent="1">
          <mxGeometry width="50" height="50" relative="1" as="geometry">
            <mxPoint x="149.5" y="110" as="sourcePoint" />
            <mxPoint x="150" y="150" as="targetPoint" />
          </mxGeometry>
        </mxCell>
        <mxCell id="meZ3qfEi7nn4eGLx0AMI-20" value="" style="endArrow=classic;html=1;rounded=0;" edge="1" parent="1">
          <mxGeometry width="50" height="50" relative="1" as="geometry">
            <mxPoint x="190" y="294.5" as="sourcePoint" />
            <mxPoint x="220" y="295" as="targetPoint" />
          </mxGeometry>
        </mxCell>
        <mxCell id="meZ3qfEi7nn4eGLx0AMI-21" value="" style="endArrow=classic;html=1;rounded=0;entryX=0;entryY=0.5;entryDx=0;entryDy=0;" edge="1" parent="1" target="meZ3qfEi7nn4eGLx0AMI-5">
          <mxGeometry width="50" height="50" relative="1" as="geometry">
            <mxPoint x="320" y="294.5" as="sourcePoint" />
            <mxPoint x="360" y="294.5" as="targetPoint" />
          </mxGeometry>
        </mxCell>
        <mxCell id="meZ3qfEi7nn4eGLx0AMI-22" value="" style="endArrow=classic;html=1;rounded=0;" edge="1" parent="1">
          <mxGeometry width="50" height="50" relative="1" as="geometry">
            <mxPoint x="454" y="294.5" as="sourcePoint" />
            <mxPoint x="494" y="294.5" as="targetPoint" />
          </mxGeometry>
        </mxCell>
        <mxCell id="meZ3qfEi7nn4eGLx0AMI-23" value="day&amp;lt;==maxDay" style="rhombus;whiteSpace=wrap;html=1;" vertex="1" parent="1">
          <mxGeometry x="90" y="540" width="90" height="80" as="geometry" />
        </mxCell>
        <mxCell id="meZ3qfEi7nn4eGLx0AMI-24" value="ngay khong hop le" style="shape=parallelogram;perimeter=parallelogramPerimeter;whiteSpace=wrap;html=1;fixedSize=1;" vertex="1" parent="1">
          <mxGeometry x="230" y="550" width="120" height="60" as="geometry" />
        </mxCell>
        <mxCell id="meZ3qfEi7nn4eGLx0AMI-25" value="ngay hop le" style="shape=parallelogram;perimeter=parallelogramPerimeter;whiteSpace=wrap;html=1;fixedSize=1;" vertex="1" parent="1">
          <mxGeometry x="80" y="690" width="120" height="60" as="geometry" />
        </mxCell>
        <mxCell id="meZ3qfEi7nn4eGLx0AMI-26" value="" style="endArrow=classic;html=1;rounded=0;" edge="1" parent="1">
          <mxGeometry width="50" height="50" relative="1" as="geometry">
            <mxPoint x="135" y="490" as="sourcePoint" />
            <mxPoint x="134.5" y="550" as="targetPoint" />
          </mxGeometry>
        </mxCell>
        <mxCell id="meZ3qfEi7nn4eGLx0AMI-27" value="" style="endArrow=classic;html=1;rounded=0;entryX=0.45;entryY=-0.057;entryDx=0;entryDy=0;entryPerimeter=0;" edge="1" parent="1" target="meZ3qfEi7nn4eGLx0AMI-25">
          <mxGeometry width="50" height="50" relative="1" as="geometry">
            <mxPoint x="134.5" y="620" as="sourcePoint" />
            <mxPoint x="134.5" y="680" as="targetPoint" />
          </mxGeometry>
        </mxCell>
        <mxCell id="meZ3qfEi7nn4eGLx0AMI-28" value="end" style="ellipse;whiteSpace=wrap;html=1;" vertex="1" parent="1">
          <mxGeometry x="75" y="820" width="120" height="80" as="geometry" />
        </mxCell>
        <mxCell id="meZ3qfEi7nn4eGLx0AMI-29" value="" style="endArrow=classic;html=1;rounded=0;entryX=0.5;entryY=0;entryDx=0;entryDy=0;" edge="1" parent="1" target="meZ3qfEi7nn4eGLx0AMI-28">
          <mxGeometry width="50" height="50" relative="1" as="geometry">
            <mxPoint x="135" y="800" as="sourcePoint" />
            <mxPoint x="134.5" y="810" as="targetPoint" />
          </mxGeometry>
        </mxCell>
        <mxCell id="meZ3qfEi7nn4eGLx0AMI-30" value="" style="endArrow=classic;html=1;rounded=0;entryX=1;entryY=0;entryDx=0;entryDy=0;" edge="1" parent="1" target="meZ3qfEi7nn4eGLx0AMI-28">
          <mxGeometry width="50" height="50" relative="1" as="geometry">
            <mxPoint x="289.5" y="610" as="sourcePoint" />
            <mxPoint x="140" y="800" as="targetPoint" />
            <Array as="points">
              <mxPoint x="290" y="800" />
              <mxPoint x="290" y="840" />
            </Array>
          </mxGeometry>
        </mxCell>
        <mxCell id="meZ3qfEi7nn4eGLx0AMI-31" value="" style="endArrow=classic;html=1;rounded=0;entryX=0.5;entryY=0;entryDx=0;entryDy=0;exitX=0.437;exitY=0.983;exitDx=0;exitDy=0;exitPerimeter=0;" edge="1" parent="1" source="meZ3qfEi7nn4eGLx0AMI-25">
          <mxGeometry width="50" height="50" relative="1" as="geometry">
            <mxPoint x="130" y="750" as="sourcePoint" />
            <mxPoint x="135" y="820" as="targetPoint" />
          </mxGeometry>
        </mxCell>
        <mxCell id="meZ3qfEi7nn4eGLx0AMI-33" value="true" style="text;html=1;strokeColor=none;fillColor=none;align=center;verticalAlign=middle;whiteSpace=wrap;rounded=0;" vertex="1" parent="1">
          <mxGeometry x="130" y="640" width="60" height="30" as="geometry" />
        </mxCell>
        <mxCell id="meZ3qfEi7nn4eGLx0AMI-34" value="" style="endArrow=classic;html=1;rounded=0;" edge="1" parent="1">
          <mxGeometry width="50" height="50" relative="1" as="geometry">
            <mxPoint x="180" y="579.5" as="sourcePoint" />
            <mxPoint x="240" y="579.5" as="targetPoint" />
          </mxGeometry>
        </mxCell>
        <mxCell id="meZ3qfEi7nn4eGLx0AMI-35" value="false" style="text;html=1;strokeColor=none;fillColor=none;align=center;verticalAlign=middle;whiteSpace=wrap;rounded=0;" vertex="1" parent="1">
          <mxGeometry x="180" y="550" width="60" height="30" as="geometry" />
        </mxCell>
        <mxCell id="meZ3qfEi7nn4eGLx0AMI-36" value="" style="endArrow=classic;html=1;rounded=0;" edge="1" parent="1">
          <mxGeometry width="50" height="50" relative="1" as="geometry">
            <mxPoint x="560" y="330" as="sourcePoint" />
            <mxPoint x="140" y="510" as="targetPoint" />
            <Array as="points">
              <mxPoint x="560" y="520" />
            </Array>
          </mxGeometry>
        </mxCell>
        <mxCell id="meZ3qfEi7nn4eGLx0AMI-37" value="" style="endArrow=classic;html=1;rounded=0;" edge="1" parent="1">
          <mxGeometry width="50" height="50" relative="1" as="geometry">
            <mxPoint x="470" y="610" as="sourcePoint" />
            <mxPoint x="460" y="670" as="targetPoint" />
          </mxGeometry>
        </mxCell>
      </root>
    </mxGraphModel>
  </diagram>
</mxfile>
